<?xml version="1.0" encoding="UTF-8" standalone="no"?>
<!DOCTYPE svg PUBLIC "-//W3C//DTD SVG 1.1//EN"
 "http://www.w3.org/Graphics/SVG/1.1/DTD/svg11.dtd">
<!-- Generated by graphviz version 6.0.1 (20220911.1526)
 -->
<!-- Pages: 1 -->
<svg width="472pt" height="965pt"
 viewBox="0.00 0.00 472.00 964.63" xmlns="http://www.w3.org/2000/svg" xmlns:xlink="http://www.w3.org/1999/xlink">
<g id="graph0" class="graph" transform="scale(1 1) rotate(0) translate(4 960.63)">
<polygon fill="white" stroke="none" points="-4,4 -4,-960.63 468,-960.63 468,4 -4,4"/>
<!-- 1 -->
<g id="node1" class="node">
<title>1</title>
<ellipse fill="none" stroke="black" cx="163" cy="-919.15" rx="60.62" ry="37.45"/>
<text text-anchor="middle" x="163" y="-930.45" font-family="Times,serif" font-size="14.00">1</text>
<text text-anchor="middle" x="163" y="-915.45" font-family="Times,serif" font-size="14.00">P0 Q1 </text>
<text text-anchor="middle" x="163" y="-900.45" font-family="Times,serif" font-size="14.00">m0=0 m1=1</text>
</g>
<!-- 4 -->
<g id="node3" class="node">
<title>4</title>
<ellipse fill="pink" stroke="black" cx="89" cy="-289.38" rx="60.62" ry="37.45"/>
<text text-anchor="middle" x="89" y="-300.68" font-family="Times,serif" font-size="14.00">4</text>
<text text-anchor="middle" x="89" y="-285.68" font-family="Times,serif" font-size="14.00">P1 Q1 </text>
<text text-anchor="middle" x="89" y="-270.68" font-family="Times,serif" font-size="14.00">m0=1 m1=1</text>
</g>
<!-- 1&#45;&gt;4 -->
<g id="edge2" class="edge">
<title>1&#45;&gt;4</title>
<path fill="none" stroke="black" d="M132.91,-886.18C113.94,-862.62 93,-828.8 93,-794.2 93,-794.2 93,-794.2 93,-414.34 93,-388.85 92.14,-360.43 91.23,-337.24"/>
<polygon fill="black" stroke="black" points="94.71,-336.83 90.8,-326.98 87.72,-337.12 94.71,-336.83"/>
<text text-anchor="middle" x="110" y="-600.57" font-family="Times,serif" font-size="14.00">lock 0</text>
</g>
<!-- 3 -->
<g id="node6" class="node">
<title>3</title>
<ellipse fill="none" stroke="black" cx="203" cy="-793.2" rx="60.62" ry="37.45"/>
<text text-anchor="middle" x="203" y="-804.5" font-family="Times,serif" font-size="14.00">3</text>
<text text-anchor="middle" x="203" y="-789.5" font-family="Times,serif" font-size="14.00">P0 Q2 </text>
<text text-anchor="middle" x="203" y="-774.5" font-family="Times,serif" font-size="14.00">m0=1 m1=1</text>
</g>
<!-- 1&#45;&gt;3 -->
<g id="edge1" class="edge">
<title>1&#45;&gt;3</title>
<path fill="none" stroke="black" d="M174.57,-882.3C178.8,-869.18 183.65,-854.15 188.13,-840.26"/>
<polygon fill="black" stroke="black" points="191.58,-840.99 191.32,-830.4 184.92,-838.84 191.58,-840.99"/>
<text text-anchor="middle" x="202" y="-852.47" font-family="Times,serif" font-size="14.00">lock 0</text>
</g>
<!-- 8 -->
<g id="node2" class="node">
<title>8</title>
<ellipse fill="none" stroke="black" cx="229" cy="-541.29" rx="60.62" ry="37.45"/>
<text text-anchor="middle" x="229" y="-552.59" font-family="Times,serif" font-size="14.00">8</text>
<text text-anchor="middle" x="229" y="-537.59" font-family="Times,serif" font-size="14.00">P1 Q3 </text>
<text text-anchor="middle" x="229" y="-522.59" font-family="Times,serif" font-size="14.00">m0=1 m1=1</text>
</g>
<!-- 2 -->
<g id="node5" class="node">
<title>2</title>
<ellipse fill="none" stroke="black" cx="229" cy="-415.34" rx="60.62" ry="37.45"/>
<text text-anchor="middle" x="229" y="-426.64" font-family="Times,serif" font-size="14.00">2</text>
<text text-anchor="middle" x="229" y="-411.64" font-family="Times,serif" font-size="14.00">P1 Q0 </text>
<text text-anchor="middle" x="229" y="-396.64" font-family="Times,serif" font-size="14.00">m0=1 m1=0</text>
</g>
<!-- 8&#45;&gt;2 -->
<g id="edge3" class="edge">
<title>8&#45;&gt;2</title>
<path fill="none" stroke="black" d="M229,-503.77C229,-491.02 229,-476.54 229,-463.07"/>
<polygon fill="black" stroke="black" points="232.5,-463.02 229,-453.02 225.5,-463.02 232.5,-463.02"/>
<text text-anchor="middle" x="253" y="-474.61" font-family="Times,serif" font-size="14.00">unlock 1</text>
</g>
<!-- 9 -->
<g id="node4" class="node">
<title>9</title>
<ellipse fill="none" stroke="black" cx="110" cy="-37.48" rx="60.62" ry="37.45"/>
<text text-anchor="middle" x="110" y="-48.78" font-family="Times,serif" font-size="14.00">9</text>
<text text-anchor="middle" x="110" y="-33.78" font-family="Times,serif" font-size="14.00">P3 Q1 </text>
<text text-anchor="middle" x="110" y="-18.78" font-family="Times,serif" font-size="14.00">m0=1 m1=1</text>
</g>
<!-- 9&#45;&gt;1 -->
<g id="edge4" class="edge">
<title>9&#45;&gt;1</title>
<path fill="none" stroke="black" d="M66.84,-63.98C36.02,-85.78 0,-120.28 0,-162.43 0,-794.2 0,-794.2 0,-794.2 0,-846.41 53.66,-879.52 99.4,-898.25"/>
<polygon fill="black" stroke="black" points="98.14,-901.51 108.72,-901.92 100.7,-895 98.14,-901.51"/>
<text text-anchor="middle" x="24" y="-474.61" font-family="Times,serif" font-size="14.00">unlock 0</text>
</g>
<!-- 2&#45;&gt;4 -->
<g id="edge5" class="edge">
<title>2&#45;&gt;4</title>
<path fill="none" stroke="black" d="M194.75,-384.01C175.51,-366.98 151.35,-345.59 130.98,-327.55"/>
<polygon fill="black" stroke="black" points="133.19,-324.83 123.38,-320.82 128.55,-330.07 133.19,-324.83"/>
<text text-anchor="middle" x="184" y="-348.66" font-family="Times,serif" font-size="14.00">lock 1</text>
</g>
<!-- 5 -->
<g id="node8" class="node">
<title>5</title>
<ellipse fill="none" stroke="black" cx="229" cy="-289.38" rx="60.62" ry="37.45"/>
<text text-anchor="middle" x="229" y="-300.68" font-family="Times,serif" font-size="14.00">5</text>
<text text-anchor="middle" x="229" y="-285.68" font-family="Times,serif" font-size="14.00">P2 Q0 </text>
<text text-anchor="middle" x="229" y="-270.68" font-family="Times,serif" font-size="14.00">m0=1 m1=1</text>
</g>
<!-- 2&#45;&gt;5 -->
<g id="edge6" class="edge">
<title>2&#45;&gt;5</title>
<path fill="none" stroke="black" d="M229,-377.82C229,-365.07 229,-350.58 229,-337.12"/>
<polygon fill="black" stroke="black" points="232.5,-337.07 229,-327.07 225.5,-337.07 232.5,-337.07"/>
<text text-anchor="middle" x="246" y="-348.66" font-family="Times,serif" font-size="14.00">lock 1</text>
</g>
<!-- 6 -->
<g id="node10" class="node">
<title>6</title>
<ellipse fill="none" stroke="black" cx="229" cy="-667.24" rx="60.62" ry="37.45"/>
<text text-anchor="middle" x="229" y="-678.54" font-family="Times,serif" font-size="14.00">6</text>
<text text-anchor="middle" x="229" y="-663.54" font-family="Times,serif" font-size="14.00">P0 Q3 </text>
<text text-anchor="middle" x="229" y="-648.54" font-family="Times,serif" font-size="14.00">m0=0 m1=1</text>
</g>
<!-- 3&#45;&gt;6 -->
<g id="edge7" class="edge">
<title>3&#45;&gt;6</title>
<path fill="none" stroke="black" d="M210.59,-756.01C213.29,-743.14 216.37,-728.47 219.22,-714.85"/>
<polygon fill="black" stroke="black" points="222.73,-715.19 221.36,-704.69 215.88,-713.76 222.73,-715.19"/>
<text text-anchor="middle" x="241" y="-726.52" font-family="Times,serif" font-size="14.00">unlock 0</text>
</g>
<!-- 7 -->
<g id="node7" class="node">
<title>7</title>
<ellipse fill="none" stroke="black" cx="229" cy="-163.43" rx="60.62" ry="37.45"/>
<text text-anchor="middle" x="229" y="-174.73" font-family="Times,serif" font-size="14.00">7</text>
<text text-anchor="middle" x="229" y="-159.73" font-family="Times,serif" font-size="14.00">P3 Q0 </text>
<text text-anchor="middle" x="229" y="-144.73" font-family="Times,serif" font-size="14.00">m0=1 m1=0</text>
</g>
<!-- 7&#45;&gt;9 -->
<g id="edge8" class="edge">
<title>7&#45;&gt;9</title>
<path fill="none" stroke="black" d="M198.66,-130.83C183.14,-114.66 164.09,-94.82 147.64,-77.68"/>
<polygon fill="black" stroke="black" points="149.73,-74.81 140.28,-70.02 144.68,-79.66 149.73,-74.81"/>
<text text-anchor="middle" x="193" y="-96.75" font-family="Times,serif" font-size="14.00">lock 1</text>
</g>
<!-- 0 -->
<g id="node9" class="node">
<title>0</title>
<ellipse fill="cyan" stroke="black" cx="339" cy="-37.48" rx="60.62" ry="37.45"/>
<text text-anchor="middle" x="339" y="-48.78" font-family="Times,serif" font-size="14.00">0</text>
<text text-anchor="middle" x="339" y="-33.78" font-family="Times,serif" font-size="14.00">P0 Q0 </text>
<text text-anchor="middle" x="339" y="-18.78" font-family="Times,serif" font-size="14.00">m0=0 m1=0</text>
</g>
<!-- 7&#45;&gt;0 -->
<g id="edge9" class="edge">
<title>7&#45;&gt;0</title>
<path fill="none" stroke="black" d="M238.3,-126.25C242.43,-114.8 248.19,-102.61 256,-92.95 263.71,-83.43 273.54,-74.99 283.71,-67.77"/>
<polygon fill="black" stroke="black" points="285.96,-70.48 292.3,-62 282.05,-64.67 285.96,-70.48"/>
<text text-anchor="middle" x="280" y="-96.75" font-family="Times,serif" font-size="14.00">unlock 0</text>
</g>
<!-- 5&#45;&gt;7 -->
<g id="edge10" class="edge">
<title>5&#45;&gt;7</title>
<path fill="none" stroke="black" d="M229,-251.86C229,-239.12 229,-224.63 229,-211.17"/>
<polygon fill="black" stroke="black" points="232.5,-211.12 229,-201.12 225.5,-211.12 232.5,-211.12"/>
<text text-anchor="middle" x="253" y="-222.71" font-family="Times,serif" font-size="14.00">unlock 1</text>
</g>
<!-- 0&#45;&gt;1 -->
<g id="edge11" class="edge">
<title>0&#45;&gt;1</title>
<path fill="none" stroke="black" d="M376.54,-67.29C401.61,-90.05 430,-124.25 430,-162.43 430,-794.2 430,-794.2 430,-794.2 430,-880.77 313.1,-907.04 234,-914.91"/>
<polygon fill="black" stroke="black" points="233.23,-911.47 223.59,-915.87 233.86,-918.44 233.23,-911.47"/>
<text text-anchor="middle" x="447" y="-474.61" font-family="Times,serif" font-size="14.00">lock 1</text>
</g>
<!-- 0&#45;&gt;2 -->
<g id="edge12" class="edge">
<title>0&#45;&gt;2</title>
<path fill="none" stroke="black" d="M335.02,-75.1C326.99,-147.55 308.78,-304.14 299,-326.86 291.48,-344.35 279.47,-361.25 267.52,-375.46"/>
<polygon fill="black" stroke="black" points="264.83,-373.22 260.91,-383.06 270.11,-377.81 264.83,-373.22"/>
<text text-anchor="middle" x="334" y="-222.71" font-family="Times,serif" font-size="14.00">lock 0</text>
</g>
<!-- 6&#45;&gt;8 -->
<g id="edge14" class="edge">
<title>6&#45;&gt;8</title>
<path fill="none" stroke="black" d="M229,-629.72C229,-616.98 229,-602.49 229,-589.03"/>
<polygon fill="black" stroke="black" points="232.5,-588.98 229,-578.98 225.5,-588.98 232.5,-588.98"/>
<text text-anchor="middle" x="246" y="-600.57" font-family="Times,serif" font-size="14.00">lock 0</text>
</g>
<!-- 6&#45;&gt;0 -->
<g id="edge13" class="edge">
<title>6&#45;&gt;0</title>
<path fill="none" stroke="black" d="M278.82,-645.73C318.35,-625.76 367,-591.24 367,-542.29 367,-542.29 367,-542.29 367,-162.43 367,-136.1 360.92,-107.38 354.42,-84.22"/>
<polygon fill="black" stroke="black" points="357.69,-82.95 351.53,-74.33 350.97,-84.92 357.69,-82.95"/>
<text text-anchor="middle" x="391" y="-348.66" font-family="Times,serif" font-size="14.00">unlock 1</text>
</g>
</g>
</svg>
