<?xml version="1.0" encoding="UTF-8" standalone="no"?>
<!DOCTYPE svg PUBLIC "-//W3C//DTD SVG 1.1//EN"
 "http://www.w3.org/Graphics/SVG/1.1/DTD/svg11.dtd">
<!-- Generated by graphviz version 6.0.1 (20220911.1526)
 -->
<!-- Pages: 1 -->
<svg width="141pt" height="305pt"
 viewBox="0.00 0.00 141.00 305.00" xmlns="http://www.w3.org/2000/svg" xmlns:xlink="http://www.w3.org/1999/xlink">
<g id="graph0" class="graph" transform="scale(1 1) rotate(0) translate(4 301)">
<polygon fill="white" stroke="none" points="-4,4 -4,-301 137,-301 137,4 -4,4"/>
<!-- P0 -->
<g id="node1" class="node">
<title>P0</title>
<ellipse fill="none" stroke="black" cx="61" cy="-279" rx="27" ry="18"/>
<text text-anchor="middle" x="61" y="-275.3" font-family="Times,serif" font-size="14.00">P0</text>
</g>
<!-- P1 -->
<g id="node2" class="node">
<title>P1</title>
<ellipse fill="none" stroke="black" cx="31" cy="-192" rx="27" ry="18"/>
<text text-anchor="middle" x="31" y="-188.3" font-family="Times,serif" font-size="14.00">P1</text>
</g>
<!-- P0&#45;&gt;P1 -->
<g id="edge1" class="edge">
<title>P0&#45;&gt;P1</title>
<path fill="none" stroke="black" d="M49.49,-262.68C45.59,-256.8 41.58,-249.85 39,-243 36.31,-235.84 34.52,-227.77 33.33,-220.24"/>
<polygon fill="black" stroke="black" points="36.78,-219.57 32.03,-210.1 29.83,-220.47 36.78,-219.57"/>
<text text-anchor="middle" x="56" y="-231.8" font-family="Times,serif" font-size="14.00">lock 0</text>
</g>
<!-- P2 -->
<g id="node3" class="node">
<title>P2</title>
<ellipse fill="none" stroke="black" cx="27" cy="-105" rx="27" ry="18"/>
<text text-anchor="middle" x="27" y="-101.3" font-family="Times,serif" font-size="14.00">P2</text>
</g>
<!-- P1&#45;&gt;P2 -->
<g id="edge2" class="edge">
<title>P1&#45;&gt;P2</title>
<path fill="none" stroke="black" d="M30.19,-173.8C29.64,-162.16 28.91,-146.55 28.28,-133.24"/>
<polygon fill="black" stroke="black" points="31.77,-133 27.81,-123.18 24.78,-133.33 31.77,-133"/>
<text text-anchor="middle" x="47" y="-144.8" font-family="Times,serif" font-size="14.00">lock 1</text>
</g>
<!-- P3 -->
<g id="node4" class="node">
<title>P3</title>
<ellipse fill="none" stroke="black" cx="55" cy="-18" rx="27" ry="18"/>
<text text-anchor="middle" x="55" y="-14.3" font-family="Times,serif" font-size="14.00">P3</text>
</g>
<!-- P2&#45;&gt;P3 -->
<g id="edge3" class="edge">
<title>P2&#45;&gt;P3</title>
<path fill="none" stroke="black" d="M23.11,-86.82C21.64,-76.93 21.14,-64.43 25,-54 26.75,-49.28 29.45,-44.76 32.53,-40.63"/>
<polygon fill="black" stroke="black" points="35.4,-42.66 39.2,-32.77 30.06,-38.13 35.4,-42.66"/>
<text text-anchor="middle" x="49" y="-57.8" font-family="Times,serif" font-size="14.00">unlock 1</text>
</g>
<!-- P3&#45;&gt;P0 -->
<g id="edge4" class="edge">
<title>P3&#45;&gt;P0</title>
<path fill="none" stroke="black" d="M65.12,-34.75C68.29,-40.57 71.39,-47.36 73,-54 92.76,-135.64 86.81,-160.14 73,-243 72.51,-245.91 71.82,-248.9 71,-251.86"/>
<polygon fill="black" stroke="black" points="67.61,-250.97 67.89,-261.56 74.28,-253.1 67.61,-250.97"/>
<text text-anchor="middle" x="109" y="-144.8" font-family="Times,serif" font-size="14.00">unlock 0</text>
</g>
</g>
</svg>
